{
	"asset":{
		"generator":"Khronos glTF Blender I/O v4.4.55",
		"version":"2.0"
	},
	"scene":0,
	"scenes":[
		{
			"name":"Scene",
			"nodes":[
				0,
				1
			]
		}
	],
	"nodes":[
		{
			"mesh":0,
			"name":"FlyingSaucer"
		},
		{
			"mesh":1,
			"name":"CockpitCover"
		}
	],
	"materials":[
		{
			"doubleSided":true,
			"name":"Material",
			"pbrMetallicRoughness":{
				"metallicFactor":0,
				"roughnessFactor":0.4000000059604645
			}
		}
	],
	"meshes":[
		{
			"name":"Cube",
			"primitives":[
				{
					"attributes":{
						"POSITION":0,
						"NORMAL":1,
						"TEXCOORD_0":2,
						"TANGENT":3
					},
					"indices":4,
					"material":0
				}
			]
		},
		{
			"name":"Cube.001",
			"primitives":[
				{
					"attributes":{
						"POSITION":5,
						"NORMAL":6,
						"TEXCOORD_0":7,
						"TANGENT":8
					},
					"indices":9,
					"material":0
				}
			]
		}
	],
	"accessors":[
		{
			"bufferView":0,
			"componentType":5126,
			"count":1292,
			"max":[
				1.3000000715255737,
				0.2076399326324463,
				1.3000000715255737
			],
			"min":[
				-1.3000000715255737,
				-0.3456491529941559,
				-1.3000000715255737
			],
			"type":"VEC3"
		},
		{
			"bufferView":1,
			"componentType":5126,
			"count":1292,
			"type":"VEC3"
		},
		{
			"bufferView":2,
			"componentType":5126,
			"count":1292,
			"type":"VEC2"
		},
		{
			"bufferView":3,
			"componentType":5126,
			"count":1292,
			"type":"VEC4"
		},
		{
			"bufferView":4,
			"componentType":5123,
			"count":2226,
			"type":"SCALAR"
		},
		{
			"bufferView":5,
			"componentType":5126,
			"count":62,
			"max":[
				0.6057319641113281,
				0.5807355642318726,
				0.6057319641113281
			],
			"min":[
				-0.6057319641113281,
				0.15859603881835938,
				-0.6057319641113281
			],
			"type":"VEC3"
		},
		{
			"bufferView":6,
			"componentType":5126,
			"count":62,
			"type":"VEC3"
		},
		{
			"bufferView":7,
			"componentType":5126,
			"count":62,
			"type":"VEC2"
		},
		{
			"bufferView":8,
			"componentType":5126,
			"count":62,
			"type":"VEC4"
		},
		{
			"bufferView":9,
			"componentType":5123,
			"count":258,
			"type":"SCALAR"
		}
	],
	"bufferViews":[
		{
			"buffer":0,
			"byteLength":15504,
			"byteOffset":0,
			"target":34962
		},
		{
			"buffer":0,
			"byteLength":15504,
			"byteOffset":15504,
			"target":34962
		},
		{
			"buffer":0,
			"byteLength":10336,
			"byteOffset":31008,
			"target":34962
		},
		{
			"buffer":0,
			"byteLength":20672,
			"byteOffset":41344,
			"target":34962
		},
		{
			"buffer":0,
			"byteLength":4452,
			"byteOffset":62016,
			"target":34963
		},
		{
			"buffer":0,
			"byteLength":744,
			"byteOffset":66468,
			"target":34962
		},
		{
			"buffer":0,
			"byteLength":744,
			"byteOffset":67212,
			"target":34962
		},
		{
			"buffer":0,
			"byteLength":496,
			"byteOffset":67956,
			"target":34962
		},
		{
			"buffer":0,
			"byteLength":992,
			"byteOffset":68452,
			"target":34962
		},
		{
			"buffer":0,
			"byteLength":516,
			"byteOffset":69444,
			"target":34963
		}
	],
	"buffers":[
		{
			"byteLength":69960,
			"uri":"FlyingSaucer-3b413a46918efb6316ce3a720e0a7402.bin"
		}
	]
}
