{
	"asset":{
		"generator":"Khronos glTF Blender I/O v4.4.55",
		"version":"2.0"
	},
	"scene":0,
	"scenes":[
		{
			"name":"Scene",
			"nodes":[
				0
			]
		}
	],
	"nodes":[
		{
			"mesh":0,
			"name":"Icosphere"
		}
	],
	"meshes":[
		{
			"name":"Icosphere.001",
			"primitives":[
				{
					"attributes":{
						"POSITION":0,
						"NORMAL":1,
						"TEXCOORD_0":2,
						"TANGENT":3
					},
					"indices":4
				}
			]
		}
	],
	"accessors":[
		{
			"bufferView":0,
			"componentType":5126,
			"count":245760,
			"max":[
				2,
				2,
				1.9999998807907104
			],
			"min":[
				-2,
				-2,
				-1.9999998807907104
			],
			"type":"VEC3"
		},
		{
			"bufferView":1,
			"componentType":5126,
			"count":245760,
			"type":"VEC3"
		},
		{
			"bufferView":2,
			"componentType":5126,
			"count":245760,
			"type":"VEC2"
		},
		{
			"bufferView":3,
			"componentType":5126,
			"count":245760,
			"type":"VEC4"
		},
		{
			"bufferView":4,
			"componentType":5125,
			"count":245760,
			"type":"SCALAR"
		}
	],
	"bufferViews":[
		{
			"buffer":0,
			"byteLength":2949120,
			"byteOffset":0,
			"target":34962
		},
		{
			"buffer":0,
			"byteLength":2949120,
			"byteOffset":2949120,
			"target":34962
		},
		{
			"buffer":0,
			"byteLength":1966080,
			"byteOffset":5898240,
			"target":34962
		},
		{
			"buffer":0,
			"byteLength":3932160,
			"byteOffset":7864320,
			"target":34962
		},
		{
			"buffer":0,
			"byteLength":983040,
			"byteOffset":11796480,
			"target":34963
		}
	],
	"buffers":[
		{
			"byteLength":12779520,
			"uri":"IcoSphere-b3b9539785e02c286e32b7db1753984a.bin"
		}
	]
}
